<?xml version="1.0" encoding="UTF-8" standalone="no"?>
<!-- Created with Inkscape (http://www.inkscape.org/) -->

<svg
   xmlns:dc="http://purl.org/dc/elements/1.1/"
   xmlns:cc="http://creativecommons.org/ns#"
   xmlns:rdf="http://www.w3.org/1999/02/22-rdf-syntax-ns#"
   xmlns:svg="http://www.w3.org/2000/svg"
   xmlns="http://www.w3.org/2000/svg"
   xmlns:sodipodi="http://sodipodi.sourceforge.net/DTD/sodipodi-0.dtd"
   xmlns:inkscape="http://www.inkscape.org/namespaces/inkscape"
   width="301.95282"
   height="326.47314"
   id="svg2"
   version="1.1"
   inkscape:version="0.48.2 r9819"
   sodipodi:docname="favicon.svg">
  <defs
     id="defs4" />
  <sodipodi:namedview
     id="base"
     pagecolor="#ffffff"
     bordercolor="#666666"
     borderopacity="1.0"
     inkscape:pageopacity="0.0"
     inkscape:pageshadow="2"
     inkscape:zoom="1.4142136"
     inkscape:cx="116.52233"
     inkscape:cy="133.34564"
     inkscape:document-units="px"
     inkscape:current-layer="layer1"
     showgrid="false"
     fit-margin-top="0"
     fit-margin-left="0"
     fit-margin-right="0"
     fit-margin-bottom="0"
     inkscape:window-width="1061"
     inkscape:window-height="741"
     inkscape:window-x="335"
     inkscape:window-y="405"
     inkscape:window-maximized="0" />
  <metadata
     id="metadata7">
    <rdf:RDF>
      <cc:Work
         rdf:about="">
        <dc:format>image/svg+xml</dc:format>
        <dc:type
           rdf:resource="http://purl.org/dc/dcmitype/StillImage" />
        <dc:title></dc:title>
      </cc:Work>
    </rdf:RDF>
  </metadata>
  <g
     inkscape:label="Layer 1"
     inkscape:groupmode="layer"
     id="layer1"
     transform="translate(-86.970391,-249.07881)">
    <path
       sodipodi:type="arc"
       style="fill:#2551b7;fill-opacity:0"
       id="path2985"
       sodipodi:cx="264"
       sodipodi:cy="461.36218"
       sodipodi:rx="113"
       sodipodi:ry="135"
       d="m 377,461.36218 c 0,74.55844 -50.59182,135 -113,135 -62.40818,0 -113,-60.44156 -113,-135 0,-74.55844 50.59182,-135 113,-135 62.40818,0 113,60.44156 113,135 z" />
    <path
       sodipodi:type="arc"
       style="fill:#2551b7;fill-opacity:1"
       id="path3755"
       sodipodi:cx="131.5"
       sodipodi:cy="476.86218"
       sodipodi:rx="91.5"
       sodipodi:ry="91.5"
       d="m 223,476.86218 a 91.5,91.5 0 1 1 -183,0 91.5,91.5 0 1 1 183,0 z"
       transform="matrix(1.0040638,0,0,0.95468365,106.46561,-38.243897)"
       inkscape:export-filename="C:\Users\pvrdwb\Dropbox\ap02\favicon.png"
       inkscape:export-xdpi="7.9899998"
       inkscape:export-ydpi="7.9899998" />
    <path
       sodipodi:type="arc"
       style="fill:#dcbe00;fill-opacity:1"
       id="path3755-1"
       sodipodi:cx="131.5"
       sodipodi:cy="476.86218"
       sodipodi:rx="91.5"
       sodipodi:ry="91.5"
       d="m 223,476.86218 a 91.5,91.5 0 1 1 -183,0 91.5,91.5 0 1 1 183,0 z"
       transform="matrix(1.0943543,-0.31981626,0.16572582,0.74923686,16.488252,104.19342)" />
    <path
       sodipodi:type="arc"
       style="fill:#dc5400;fill-opacity:1"
       id="path3755-7"
       sodipodi:cx="131.5"
       sodipodi:cy="476.86218"
       sodipodi:rx="91.5"
       sodipodi:ry="91.5"
       d="m 223,476.86218 a 91.5,91.5 0 1 1 -183,0 91.5,91.5 0 1 1 183,0 z"
       transform="matrix(1.1402005,-0.3844074,0.16149609,0.51628149,15.069804,224.92935)" />
    <path
       sodipodi:type="arc"
       style="fill:#dc0000;fill-opacity:1"
       id="path3755-7-4"
       sodipodi:cx="131.5"
       sodipodi:cy="476.86218"
       sodipodi:rx="91.5"
       sodipodi:ry="91.5"
       d="m 223,476.86218 a 91.5,91.5 0 1 1 -183,0 91.5,91.5 0 1 1 183,0 z"
       transform="matrix(1.1943082,-0.24960932,0.16007865,0.29318774,14.833614,312.22407)" />
    <path
       style="fill:#ffffff;fill-opacity:1"
       d="m 86.970391,249.07881 0,326.47314 301.952829,0 0,-326.47314 -301.952829,0 z m 151.332459,80.89846 c 50.26854,0 91.02238,38.73686 91.02238,86.53319 0,47.79632 -40.75384,86.56414 -91.02238,86.56414 -50.26854,0 -91.02238,-38.76782 -91.02238,-86.56414 0,-47.79633 40.75384,-86.53319 91.02238,-86.53319 z"
       id="rect3860"
       inkscape:connector-curvature="0" />
  </g>
</svg>
