<?xml version="1.0" encoding="UTF-8" standalone="no"?>
<!-- Created with Inkscape (http://www.inkscape.org/) -->

<svg
   xmlns:dc="http://purl.org/dc/elements/1.1/"
   xmlns:cc="http://creativecommons.org/ns#"
   xmlns:rdf="http://www.w3.org/1999/02/22-rdf-syntax-ns#"
   xmlns:svg="http://www.w3.org/2000/svg"
   xmlns="http://www.w3.org/2000/svg"
   xmlns:sodipodi="http://sodipodi.sourceforge.net/DTD/sodipodi-0.dtd"
   xmlns:inkscape="http://www.inkscape.org/namespaces/inkscape"
   width="301.95282"
   height="326.47314"
   id="svg2"
   version="1.1"
   inkscape:version="0.48.2 r9819"
   sodipodi:docname="favicon.svg"
   inkscape:export-filename="C:\Users\pvrdwb\Dropbox\ap02\favicon-trans.png"
   inkscape:export-xdpi="7.9899998"
   inkscape:export-ydpi="7.9899998">
  <defs
     id="defs4" />
  <sodipodi:namedview
     id="base"
     pagecolor="#ffffff"
     bordercolor="#666666"
     borderopacity="1.0"
     inkscape:pageopacity="0.0"
     inkscape:pageshadow="2"
     inkscape:zoom="2.0000001"
     inkscape:cx="144.74455"
     inkscape:cy="134.42741"
     inkscape:document-units="px"
     inkscape:current-layer="layer1"
     showgrid="false"
     fit-margin-top="0"
     fit-margin-left="0"
     fit-margin-right="0"
     fit-margin-bottom="0"
     inkscape:window-width="1061"
     inkscape:window-height="741"
     inkscape:window-x="335"
     inkscape:window-y="405"
     inkscape:window-maximized="0" />
  <metadata
     id="metadata7">
    <rdf:RDF>
      <cc:Work
         rdf:about="">
        <dc:format>image/svg+xml</dc:format>
        <dc:type
           rdf:resource="http://purl.org/dc/dcmitype/StillImage" />
        <dc:title></dc:title>
      </cc:Work>
    </rdf:RDF>
  </metadata>
  <g
     inkscape:label="Layer 1"
     inkscape:groupmode="layer"
     id="layer1"
     transform="translate(-86.970391,-249.07881)">
    <path
       sodipodi:type="arc"
       style="fill:#2551b7;fill-opacity:0"
       id="path2985"
       sodipodi:cx="264"
       sodipodi:cy="461.36218"
       sodipodi:rx="113"
       sodipodi:ry="135"
       d="m 377,461.36218 c 0,74.55844 -50.59182,135 -113,135 -62.40818,0 -113,-60.44156 -113,-135 0,-74.55844 50.59182,-135 113,-135 62.40818,0 113,60.44156 113,135 z" />
    <path
       style="fill:#2551b7;fill-opacity:1"
       d="M 152.03125 81.15625 C 101.7627 81.15625 61 119.89117 61 167.6875 C 61 215.48382 101.7627 254.25 152.03125 254.25 C 202.29979 254.25 243.0625 215.48382 243.0625 167.6875 C 243.0625 119.89117 202.29979 81.15625 152.03125 81.15625 z "
       transform="translate(86.970391,249.07881)"
       id="path3755"
       inkscape:export-xdpi="7.9099998"
       inkscape:export-ydpi="7.9099998"
       inkscape:export-filename="C:\Users\pvrdwb\Dropbox\ap02\favicon-trans.png" />
    <path
       style="fill:#dcbe00;fill-opacity:1"
       d="m 265.14624,344.86006 c -12.74713,0.0319 -26.36196,1.9596 -40.1875,6 -34.8397,10.18162 -62.80721,31.3391 -76.65625,55.0625 -0.43694,3.43825 -0.6875,6.91836 -0.6875,10.46875 0,32.71736 19.1094,61.21952 47.28125,75.9375 18.03845,3.10512 38.94776,1.92732 60.40625,-4.34375 30.02764,-8.77534 54.94203,-25.71049 70.125,-45.40625 2.75261,-8.25879 4.25,-17.06392 4.25,-26.1875 0,-27.38617 -13.39849,-51.76991 -34.28125,-67.625 -9.22511,-2.58425 -19.4217,-3.93336 -30.25,-3.90625 z"
       id="path3755-1"
       inkscape:connector-curvature="0" />
    <path
       style="fill:#dc5400;fill-opacity:1"
       d="m 293.30249,361.67256 c -19.25019,-0.0259 -41.93606,3.76457 -65.34375,11.65625 -35.59707,12.0012 -64.49581,30.67364 -79.46875,49.34375 1.25304,21.52716 10.76536,40.96053 25.59375,55.46875 22.20278,3.40768 52.16086,0.22157 83.40625,-10.3125 30.63041,-10.32674 56.32902,-25.60909 72.4375,-41.5625 0.28296,-2.77844 0.4375,-5.58861 0.4375,-8.4375 0,-20.94189 -7.82401,-40.15774 -20.84375,-55.125 -5.0514,-0.6788 -10.48232,-1.02353 -16.21875,-1.03125 z"
       id="path3755-7"
       inkscape:connector-curvature="0" />
    <path
       style="fill:#dc0000;fill-opacity:1"
       d="m 307.49184,384.70381 c -20.9794,0.12099 -46.43921,2.85648 -72.84375,8.375 -39.68752,8.29465 -71.60043,20.76087 -86.5,32.53125 1.01075,9.19857 3.51262,17.98099 7.3125,26.09375 22.16377,5.802 63.97989,4.32938 108.46875,-4.96875 25.88932,-5.41085 48.44893,-12.58065 65.15625,-20.1875 0.39941,-3.29068 0.59375,-6.63898 0.59375,-10.03125 0,-11.05088 -2.1852,-21.62826 -6.15625,-31.34375 -4.96437,-0.35466 -10.33244,-0.50161 -16.03125,-0.46875 z"
       id="path3755-7-4"
       inkscape:connector-curvature="0" />
  </g>
</svg>
