<?xml version="1.0" encoding="UTF-8" standalone="no"?>
<!DOCTYPE svg PUBLIC "-//W3C//DTD SVG 1.1//EN"
 "http://www.w3.org/Graphics/SVG/1.1/DTD/svg11.dtd">
<!-- Generated by graphviz version 2.26.3 (20100126.1600)
 -->
<!-- Title: G Pages: 1 -->
<svg width="186pt" height="1426pt"
 viewBox="0.00 0.00 186.00 1426.00" xmlns="http://www.w3.org/2000/svg" xmlns:xlink="http://www.w3.org/1999/xlink">
<g id="graph1" class="graph" transform="scale(1 1) rotate(0) translate(4 1422)">
<title>G</title>
<polygon fill="white" stroke="white" points="-4,5 -4,-1422 183,-1422 183,5 -4,5"/>
<g id="graph2" class="cluster"><title>cluster_default</title>
<polyline fill="none" stroke="none" points="20,-8 158,-8 "/>
<path fill="none" stroke="none" d="M158,-8C164,-8 170,-14 170,-20"/>
<polyline fill="none" stroke="none" points="170,-20 170,-1398 "/>
<path fill="none" stroke="none" d="M170,-1398C170,-1404 164,-1410 158,-1410"/>
<polyline fill="none" stroke="none" points="158,-1410 20,-1410 "/>
<path fill="none" stroke="none" d="M20,-1410C14,-1410 8,-1404 8,-1398"/>
<polyline fill="none" stroke="none" points="8,-1398 8,-20 "/>
<path fill="none" stroke="none" d="M8,-20C8,-14 14,-8 20,-8"/>
</g>
<!-- \\ascii_grid -->
<g id="node2" class="node"><title>\\ascii_grid</title>
<a xlink:href="ascii_grid.html" xlink:title="ascii_grid" target="_parent">
<polygon fill="none" stroke="black" points="131,-1402 47,-1402 47,-1366 131,-1366 131,-1402"/>
<text text-anchor="middle" x="89" y="-1381.1" font-family="Courier,monospace" font-size="11.00">ascii_grid</text>
</a>
</g>
<!-- \\color -->
<g id="node3" class="node"><title>\\color</title>
<a xlink:href="color.class.html" xlink:title="color" target="_parent">
<polygon fill="none" stroke="black" points="116,-1348 62,-1348 62,-1312 116,-1312 116,-1348"/>
<text text-anchor="middle" x="89" y="-1327.1" font-family="Courier,monospace" font-size="11.00">color</text>
</a>
</g>
<!-- \\matrix -->
<g id="node4" class="node"><title>\\matrix</title>
<a xlink:href="matrix.class.html" xlink:title="matrix" target="_parent">
<polygon fill="none" stroke="black" points="117,-1294 61,-1294 61,-1258 117,-1258 117,-1294"/>
<text text-anchor="middle" x="89" y="-1273.1" font-family="Courier,monospace" font-size="11.00">matrix</text>
</a>
</g>
<!-- \\gnuplot -->
<g id="node5" class="node"><title>\\gnuplot</title>
<a xlink:href="gnuplot.class.html" xlink:title="gnuplot" target="_parent">
<polygon fill="none" stroke="black" points="121,-1240 57,-1240 57,-1204 121,-1204 121,-1240"/>
<text text-anchor="middle" x="89" y="-1219.1" font-family="Courier,monospace" font-size="11.00">gnuplot</text>
</a>
</g>
<!-- \\util -->
<g id="node6" class="node"><title>\\util</title>
<a xlink:href="util.class.html" xlink:title="util" target="_parent">
<polygon fill="none" stroke="black" points="116,-1186 62,-1186 62,-1150 116,-1150 116,-1186"/>
<text text-anchor="middle" x="89" y="-1165.1" font-family="Courier,monospace" font-size="11.00">util</text>
</a>
</g>
<!-- \\draw -->
<g id="node7" class="node"><title>\\draw</title>
<a xlink:href="draw.class.html" xlink:title="draw" target="_parent">
<polygon fill="none" stroke="black" points="116,-1132 62,-1132 62,-1096 116,-1096 116,-1132"/>
<text text-anchor="middle" x="89" y="-1111.1" font-family="Courier,monospace" font-size="11.00">draw</text>
</a>
</g>
<!-- \\array_util -->
<g id="node8" class="node"><title>\\array_util</title>
<a xlink:href="array_util.class.html" xlink:title="array_util" target="_parent">
<polygon fill="none" stroke="black" points="131,-1078 47,-1078 47,-1042 131,-1042 131,-1078"/>
<text text-anchor="middle" x="89" y="-1057.1" font-family="Courier,monospace" font-size="11.00">array_util</text>
</a>
</g>
<!-- \\debug -->
<g id="node9" class="node"><title>\\debug</title>
<a xlink:href="debug.class.html" xlink:title="debug" target="_parent">
<polygon fill="none" stroke="black" points="116,-1024 62,-1024 62,-988 116,-988 116,-1024"/>
<text text-anchor="middle" x="89" y="-1003.1" font-family="Courier,monospace" font-size="11.00">debug</text>
</a>
</g>
<!-- \\progress -->
<g id="node10" class="node"><title>\\progress</title>
<a xlink:href="progress.html" xlink:title="progress" target="_parent">
<polygon fill="none" stroke="black" points="124,-970 54,-970 54,-934 124,-934 124,-970"/>
<text text-anchor="middle" x="89" y="-949.1" font-family="Courier,monospace" font-size="11.00">progress</text>
</a>
</g>
<!-- \\datetimeutil -->
<g id="node11" class="node"><title>\\datetimeutil</title>
<a xlink:href="datetimeutil.class.html" xlink:title="datetimeutil" target="_parent">
<polygon fill="none" stroke="black" points="138,-916 40,-916 40,-880 138,-880 138,-916"/>
<text text-anchor="middle" x="89" y="-895.1" font-family="Courier,monospace" font-size="11.00">datetimeutil</text>
</a>
</g>
<!-- \\documentIt -->
<g id="node12" class="node"><title>\\documentIt</title>
<a xlink:href="documentIt.class.html" xlink:title="documentIt" target="_parent">
<polygon fill="none" stroke="black" points="131,-862 47,-862 47,-826 131,-826 131,-862"/>
<text text-anchor="middle" x="89" y="-841.1" font-family="Courier,monospace" font-size="11.00">documentIt</text>
</a>
</g>
<!-- \\GRASS -->
<g id="node13" class="node"><title>\\GRASS</title>
<a xlink:href="grass.class.html" xlink:title="GRASS" target="_parent">
<polygon fill="none" stroke="black" points="116,-808 62,-808 62,-772 116,-772 116,-808"/>
<text text-anchor="middle" x="89" y="-787.1" font-family="Courier,monospace" font-size="11.00">GRASS</text>
</a>
</g>
<!-- \\ImageUtil -->
<g id="node14" class="node"><title>\\ImageUtil</title>
<a xlink:href="ImageUtil.class.html" xlink:title="ImageUtil" target="_parent">
<polygon fill="none" stroke="black" points="127,-754 51,-754 51,-718 127,-718 127,-754"/>
<text text-anchor="middle" x="89" y="-733.1" font-family="Courier,monospace" font-size="11.00">ImageUtil</text>
</a>
</g>
<!-- \\grass_output -->
<g id="node15" class="node"><title>\\grass_output</title>
<a xlink:href="grass_output.class.html" xlink:title="grass_output" target="_parent">
<polygon fill="none" stroke="black" points="138,-700 40,-700 40,-664 138,-664 138,-700"/>
<text text-anchor="middle" x="89" y="-679.1" font-family="Courier,monospace" font-size="11.00">grass_output</text>
</a>
</g>
<!-- \\Object -->
<g id="node16" class="node"><title>\\Object</title>
<a xlink:href="Object.class.html" xlink:title="Object" target="_parent">
<polygon fill="none" stroke="black" points="117,-646 61,-646 61,-610 117,-610 117,-646"/>
<text text-anchor="middle" x="89" y="-625.1" font-family="Courier,monospace" font-size="11.00">Object</text>
</a>
</g>
<!-- \\location_coordinate -->
<g id="node17" class="node"><title>\\location_coordinate</title>
<a xlink:href="location_coordinate.class.html" xlink:title="location_coordinate" target="_parent">
<polygon fill="none" stroke="black" points="161,-592 17,-592 17,-556 161,-556 161,-592"/>
<text text-anchor="middle" x="89" y="-571.1" font-family="Courier,monospace" font-size="11.00">location_coordinate</text>
</a>
</g>
<!-- \\image_location -->
<g id="node18" class="node"><title>\\image_location</title>
<a xlink:href="image_location.class.html" xlink:title="image_location" target="_parent">
<polygon fill="none" stroke="black" points="144,-538 34,-538 34,-502 144,-502 144,-538"/>
<text text-anchor="middle" x="89" y="-517.1" font-family="Courier,monospace" font-size="11.00">image_location</text>
</a>
</g>
<!-- \\file -->
<g id="node19" class="node"><title>\\file</title>
<a xlink:href="file.class.html" xlink:title="file" target="_parent">
<polygon fill="none" stroke="black" points="116,-484 62,-484 62,-448 116,-448 116,-484"/>
<text text-anchor="middle" x="89" y="-463.1" font-family="Courier,monospace" font-size="11.00">file</text>
</a>
</g>
<!-- \\stats -->
<g id="node20" class="node"><title>\\stats</title>
<a xlink:href="stats.html" xlink:title="stats" target="_parent">
<polygon fill="none" stroke="black" points="116,-430 62,-430 62,-394 116,-394 116,-430"/>
<text text-anchor="middle" x="89" y="-409.1" font-family="Courier,monospace" font-size="11.00">stats</text>
</a>
</g>
<!-- \\spatial_util -->
<g id="node21" class="node"><title>\\spatial_util</title>
<a xlink:href="spatial_util.class.html" xlink:title="spatial_util" target="_parent">
<polygon fill="none" stroke="black" points="138,-376 40,-376 40,-340 138,-340 138,-376"/>
<text text-anchor="middle" x="89" y="-355.1" font-family="Courier,monospace" font-size="11.00">spatial_util</text>
</a>
</g>
<!-- \\logger -->
<g id="node22" class="node"><title>\\logger</title>
<a xlink:href="logger.class.html" xlink:title="logger" target="_parent">
<polygon fill="none" stroke="black" points="117,-322 61,-322 61,-286 117,-286 117,-322"/>
<text text-anchor="middle" x="89" y="-301.1" font-family="Courier,monospace" font-size="11.00">logger</text>
</a>
</g>
<!-- \\htmlutil -->
<g id="node23" class="node"><title>\\htmlutil</title>
<a xlink:href="htmlutil.class.html" xlink:title="htmlutil" target="_parent">
<polygon fill="none" stroke="black" points="124,-268 54,-268 54,-232 124,-232 124,-268"/>
<text text-anchor="middle" x="89" y="-247.1" font-family="Courier,monospace" font-size="11.00">htmlutil</text>
</a>
</g>
<!-- \\jagged_array -->
<g id="node24" class="node"><title>\\jagged_array</title>
<a xlink:href="jagged_array.html" xlink:title="jagged_array" target="_parent">
<polygon fill="none" stroke="black" points="138,-214 40,-214 40,-178 138,-178 138,-214"/>
<text text-anchor="middle" x="89" y="-193.1" font-family="Courier,monospace" font-size="11.00">jagged_array</text>
</a>
</g>
<!-- \\location -->
<g id="node25" class="node"><title>\\location</title>
<a xlink:href="location.class.html" xlink:title="location" target="_parent">
<polygon fill="none" stroke="black" points="124,-160 54,-160 54,-124 124,-124 124,-160"/>
<text text-anchor="middle" x="89" y="-139.1" font-family="Courier,monospace" font-size="11.00">location</text>
</a>
</g>
<!-- \\classManager -->
<g id="node26" class="node"><title>\\classManager</title>
<a xlink:href="classManager.class.html" xlink:title="classManager" target="_parent">
<polygon fill="none" stroke="black" points="138,-106 40,-106 40,-70 138,-70 138,-106"/>
<text text-anchor="middle" x="89" y="-85.1" font-family="Courier,monospace" font-size="11.00">classManager</text>
</a>
</g>
<!-- \\database -->
<g id="node27" class="node"><title>\\database</title>
<a xlink:href="database.class.html" xlink:title="database" target="_parent">
<polygon fill="none" stroke="black" points="124,-52 54,-52 54,-16 124,-16 124,-52"/>
<text text-anchor="middle" x="89" y="-31.1" font-family="Courier,monospace" font-size="11.00">database</text>
</a>
</g>
</g>
</svg>
